# xmcd CD database file
#
# Track frame offsets:
#	150
#	18480
#	35681
#	56637
#	75022
#	90203
#
# Disc length: 1402 seconds
#
# Revision: 0
# Processed by: cddbd v1.5.2PL0 Copyright (c) Steve Scherf et al.
# Submitted via: CDex 1.70beta3
#
DISCID=35057806
DTITLE=Stan Levey - Stan Levey Plays The Compositions Of Bill Holman, Bob Cooper And Jimmy Giuffre
DYEAR=1954
DGENRE=Jazz
TTITLE0=Exaktamo
TTITLE1=Extra Version
TTITLE2=Drum Sticks
TTITLE3=Lightnin' Bug
TTITLE4=West Coasting
TTITLE5=Fast Clip
EXTD=YEAR: 1954
EXTT0=
EXTT1=
EXTT2=
EXTT3=
EXTT4=
EXTT5=
PLAYORDER=
